<svg xmlns="http://www.w3.org/2000/svg" version="1.1" xmlns:xlink="http://www.w3.org/1999/xlink" xmlns:svgjs="http://svgjs.dev/svgjs" width="1500" height="1500" viewBox="0 0 1500 1500"><rect width="1500" height="1500" fill="#000000"></rect><g transform="matrix(0.6666666666666666,0,0,0.6666666666666666,250.2431585490359,326.0102564102564)"><svg viewBox="0 0 291 247" data-background-color="#ffffff" preserveAspectRatio="xMidYMid meet" height="1273" width="1500" xmlns="http://www.w3.org/2000/svg" xmlns:xlink="http://www.w3.org/1999/xlink"><g id="tight-bounds" transform="matrix(1,0,0,1,-0.07075913776944276,-0.09999999999999432)"><svg viewBox="0 0 291.1415182755389 247.2" height="247.2" width="291.1415182755389"><g><svg viewBox="0 0 291.1415182755389 247.2" height="247.2" width="291.1415182755389"><g><svg viewBox="0 0 291.1415182755389 247.2" height="247.2" width="291.1415182755389"><g><svg viewBox="0 0 291.1415182755389 247.2" height="247.2" width="291.1415182755389"><g id="textblocktransform"><svg viewBox="0 0 291.1415182755389 247.2" height="247.2" width="291.1415182755389" id="textblock"><g><svg viewBox="0 0 291.1415182755389 247.2" height="247.2" width="291.1415182755389"><g transform="matrix(1,0,0,1,0,0)"><svg width="291.1415182755389" viewBox="0.7500000000000071 -25.85000000000001 188.49999999999994 133" height="247.2" data-palette-color="#336a86"><svg></svg><svg></svg><svg></svg><g class="wordmark-text-0" data-fill-palette-color="primary" id="text-0"><path d="M14.35-2.05l7.05-19.45c0.233-0.633 0.35-1.267 0.35-1.9 0-0.633-0.233-1.2-0.7-1.7v0c0.733-0.5 1.55-0.75 2.45-0.75 0.9 0 1.633 0.45 2.2 1.35v0c0.267 0.467 0.4 0.99 0.4 1.57 0 0.587-0.15 1.247-0.45 1.98v0l-10.4 27.1c-1.633 4.167-3.867 6.25-6.7 6.25v0c-1.067 0-1.9-0.267-2.5-0.8-0.6-0.533-0.9-1.207-0.9-2.02 0-0.82 0.267-1.48 0.8-1.98v0c0.6 0.633 1.333 0.95 2.2 0.95 0.867 0 1.56-0.233 2.08-0.7 0.513-0.467 0.987-1.3 1.42-2.5v0l1.8-4.9c-0.033 0-0.083 0-0.15 0v0c-0.667 0-1.283-0.227-1.85-0.68-0.567-0.447-0.983-1.087-1.25-1.92v0l-6.9-20c-0.333-1.233-0.85-2.017-1.55-2.35v0c0.567-0.9 1.45-1.35 2.65-1.35v0c1.433 0 2.467 1.083 3.1 3.25v0zM46.48-20.38c-1.52-1.747-3.43-2.62-5.73-2.62-2.3 0-4.083 0.79-5.35 2.37-1.267 1.587-1.9 3.913-1.9 6.98v0c0 3.967 0.777 6.84 2.33 8.62 1.547 1.787 3.47 2.68 5.77 2.68 2.3 0 4.067-0.8 5.3-2.4 1.233-1.6 1.85-3.933 1.85-7v0c0-4-0.757-6.877-2.27-8.63zM32.73-22.4c2.313-2.3 5.12-3.45 8.42-3.45 3.3 0 6.11 1.157 8.43 3.47 2.313 2.32 3.47 5.553 3.47 9.7 0 4.153-1.157 7.38-3.47 9.68-2.32 2.3-5.13 3.45-8.43 3.45-3.3 0-6.107-1.15-8.42-3.45-2.32-2.3-3.48-5.533-3.48-9.7 0-4.167 1.16-7.4 3.48-9.7zM80.75-22.35v0 19.25c0 0.933 0.433 1.583 1.3 1.95v0c-0.7 1.067-1.583 1.6-2.65 1.6v0c-1.833 0-2.75-1.167-2.75-3.5v0-1.3c-1.867 3.2-4.583 4.8-8.15 4.8v0c-5.633 0-8.45-2.867-8.45-8.6v0-14.1c0-0.967-0.417-1.633-1.25-2v0c0.633-1.067 1.5-1.6 2.6-1.6v0c1.867 0 2.8 1.167 2.8 3.5v0 13.95c0 3.533 1.733 5.3 5.2 5.3v0c1.6 0 3.043-0.483 4.33-1.45 1.28-0.967 2.253-2.317 2.92-4.05v0-13.65c0-0.967-0.433-1.633-1.3-2v0c0.767-1.067 1.65-1.6 2.65-1.6v0c1.833 0 2.75 1.167 2.75 3.5zM93.9-22.35v0 1.85c1.4-3.567 3.717-5.35 6.95-5.35v0c1.567 0 2.783 0.4 3.65 1.2 0.867 0.8 1.3 1.723 1.3 2.77 0 1.053-0.267 1.853-0.8 2.4-0.533 0.553-1.083 0.83-1.65 0.83-0.567 0-1.083-0.067-1.55-0.2v0c0.067-0.333 0.1-0.767 0.1-1.3v0c0-1.667-0.833-2.5-2.5-2.5v0c-1.1 0-2.183 0.55-3.25 1.65-1.067 1.1-1.817 2.783-2.25 5.05v0 12.85c0 0.967 0.417 1.617 1.25 1.95v0c-0.7 1.067-1.567 1.6-2.6 1.6v0c-1.867 0-2.8-1.167-2.8-3.5v0-19.2c0-0.967-0.417-1.633-1.25-2v0c0.633-1.067 1.5-1.6 2.6-1.6v0c1.867 0 2.8 1.167 2.8 3.5z" fill="#ffffff" fill-rule="nonzero" stroke="none" stroke-width="1" stroke-linecap="butt" stroke-linejoin="miter" stroke-miterlimit="10" stroke-dasharray="" stroke-dashoffset="0" font-family="none" font-weight="none" font-size="none" text-anchor="none" style="mix-blend-mode: normal" data-fill-palette-color="primary" opacity="1"></path><path d="M28.3 50.95l4.55-19.05c0.167-0.7 0.25-1.393 0.25-2.08 0-0.68-0.217-1.237-0.65-1.67v0c0.7-0.433 1.483-0.65 2.35-0.65 0.867 0 1.483 0.433 1.85 1.3v0c0.167 0.4 0.25 0.9 0.25 1.5 0 0.6-0.1 1.283-0.3 2.05v0l-4.85 17.9c-0.367 1.267-0.833 2.173-1.4 2.72-0.567 0.553-1.333 0.83-2.3 0.83v0c-1.9 0-3.167-1.183-3.8-3.55v0l-4.6-17.3-4.4 17.3c-0.567 2.367-1.833 3.55-3.8 3.55-1.967 0-3.233-1.183-3.8-3.55v0l-4.85-18.45c-0.333-1.267-1.017-1.917-2.05-1.95v0c0.033-0.7 0.327-1.267 0.88-1.7 0.547-0.433 1.187-0.65 1.92-0.65v0c1.7 0 2.85 1.167 3.45 3.5v0l4.55 19.6 5.15-19.95c0.3-1.133 0.717-1.943 1.25-2.43 0.533-0.48 1.243-0.72 2.13-0.72 0.88 0 1.58 0.24 2.1 0.72 0.513 0.487 0.903 1.297 1.17 2.43v0zM44.8 38.7l9.35-0.75c1.367-0.1 2.05-0.893 2.05-2.38 0-1.48-0.427-2.713-1.28-3.7-0.847-0.98-2.037-1.47-3.57-1.47-1.533 0-2.933 0.733-4.2 2.2-1.267 1.467-2.05 3.5-2.35 6.1zM44.7 40.85c0 3.267 0.71 5.683 2.13 7.25 1.413 1.567 3.437 2.35 6.07 2.35 2.633 0 4.817-0.867 6.55-2.6v0c0.5 0.267 0.75 0.717 0.75 1.35v0c0 1.1-0.8 2.14-2.4 3.12-1.6 0.987-3.5 1.48-5.7 1.48v0c-3.433 0-6.25-1.083-8.45-3.25-2.2-2.167-3.3-5.21-3.3-9.13 0-3.913 1.193-7.213 3.58-9.9 2.38-2.68 5.12-4.02 8.22-4.02v0c2.467 0 4.477 0.85 6.03 2.55 1.547 1.7 2.32 3.633 2.32 5.8v0c0 1.567-0.423 2.723-1.27 3.47-0.853 0.753-2.23 1.163-4.13 1.23v0zM82.35 44.85v-12.15c-1.5-1.4-3.323-2.1-5.47-2.1-2.153 0-3.987 0.923-5.5 2.77-1.52 1.853-2.28 4.38-2.28 7.58 0 3.2 0.66 5.6 1.98 7.2 1.313 1.6 2.97 2.4 4.97 2.4v0c3.367 0 5.467-1.9 6.3-5.7zM86.55 18.8v0 31.45c0 0.967 0.417 1.617 1.25 1.95v0c-0.7 1.067-1.583 1.6-2.65 1.6v0c-1.867 0-2.8-1.167-2.8-3.5v0-0.8c-1.5 2.867-3.9 4.3-7.2 4.3v0c-2.8 0-5.25-1.127-7.35-3.38-2.1-2.247-3.15-5.363-3.15-9.35 0-3.98 1.133-7.237 3.4-9.77 2.267-2.533 5-3.8 8.2-3.8v0c2.267 0 4.3 0.567 6.1 1.7v0-10.3c0-1-0.417-1.667-1.25-2v0c0.633-1.033 1.5-1.55 2.6-1.55v0c1.9 0 2.85 1.15 2.85 3.45zM111 44.85v-12.15c-1.5-1.4-3.323-2.1-5.47-2.1-2.153 0-3.987 0.923-5.5 2.77-1.52 1.853-2.28 4.38-2.28 7.58 0 3.2 0.66 5.6 1.98 7.2 1.313 1.6 2.97 2.4 4.97 2.4v0c3.367 0 5.467-1.9 6.3-5.7zM115.2 18.8v0 31.45c0 0.967 0.417 1.617 1.25 1.95v0c-0.7 1.067-1.583 1.6-2.65 1.6v0c-1.867 0-2.8-1.167-2.8-3.5v0-0.8c-1.5 2.867-3.9 4.3-7.2 4.3v0c-2.8 0-5.25-1.127-7.35-3.38-2.1-2.247-3.15-5.363-3.15-9.35 0-3.98 1.133-7.237 3.4-9.77 2.267-2.533 5-3.8 8.2-3.8v0c2.267 0 4.3 0.567 6.1 1.7v0-10.3c0-1-0.417-1.667-1.25-2v0c0.633-1.033 1.5-1.55 2.6-1.55v0c1.9 0 2.85 1.15 2.85 3.45zM126.43 16.85c0.847 0 1.547 0.243 2.1 0.73 0.547 0.48 0.82 1.147 0.82 2 0 0.847-0.357 1.61-1.07 2.29-0.72 0.687-1.53 1.03-2.43 1.03-0.9 0-1.633-0.267-2.2-0.8-0.567-0.533-0.85-1.233-0.85-2.1 0-0.867 0.393-1.61 1.18-2.23 0.78-0.613 1.597-0.92 2.45-0.92zM128.35 31v0 19.25c0 0.967 0.417 1.617 1.25 1.95v0c-0.7 1.067-1.567 1.6-2.6 1.6v0c-1.867 0-2.8-1.167-2.8-3.5v0-19.2c0-0.967-0.417-1.633-1.25-2v0c0.633-1.067 1.5-1.6 2.6-1.6v0c1.867 0 2.8 1.167 2.8 3.5zM158.15 36.1v0 14.15c0 0.933 0.433 1.583 1.3 1.95v0c-0.7 1.067-1.583 1.6-2.65 1.6v0c-1.833 0-2.75-1.167-2.75-3.5v0-13.9c0-3.5-1.533-5.25-4.6-5.25v0c-1.667 0-3.25 0.667-4.75 2-1.5 1.333-2.533 3.117-3.1 5.35v0 11.75c0 0.967 0.417 1.617 1.25 1.95v0c-0.7 1.067-1.567 1.6-2.6 1.6v0c-1.867 0-2.8-1.167-2.8-3.5v0-19.2c0-0.967-0.417-1.633-1.25-2v0c0.633-1.067 1.5-1.6 2.6-1.6v0c1.867 0 2.8 1.167 2.8 3.5v0 2.6c0.867-1.8 2.1-3.267 3.7-4.4 1.6-1.133 3.477-1.7 5.63-1.7 2.147 0 3.887 0.723 5.22 2.17 1.333 1.453 2 3.597 2 6.43zM172.08 43.02c1.113 1.353 2.453 2.03 4.02 2.03 1.567 0 2.833-0.643 3.8-1.93 0.967-1.28 1.45-2.903 1.45-4.87v0c0-2.667-0.617-4.727-1.85-6.18-1.233-1.447-2.623-2.17-4.17-2.17-1.553 0-2.813 0.633-3.78 1.9-0.967 1.267-1.45 2.8-1.45 4.6v0c0 0.333 0.017 0.683 0.05 1.05v0c0.167 2.367 0.81 4.223 1.93 5.57zM180.7 54.95v0h-6.4c-2.367 0-4.283-0.407-5.75-1.22-1.467-0.82-2.2-2.173-2.2-4.06 0-1.88 1.133-3.287 3.4-4.22v0c-2.533-1.867-3.8-4.417-3.8-7.65 0-3.233 0.983-5.76 2.95-7.58 1.967-1.813 4.25-2.72 6.85-2.72v0c1.8 0 3.45 0.45 4.95 1.35v0c0.2-1.6 0.81-2.9 1.83-3.9 1.013-1 2.08-1.5 3.2-1.5 1.113 0 1.98 0.267 2.6 0.8 0.613 0.533 0.92 1.24 0.92 2.12 0 0.887-0.35 1.53-1.05 1.93v0c-0.733-0.567-1.517-0.85-2.35-0.85-0.833 0-1.54 0.257-2.12 0.77-0.587 0.52-0.963 1.197-1.13 2.03v0c1.967 1.9 2.95 4.333 2.95 7.3 0 2.967-0.983 5.35-2.95 7.15-1.967 1.8-4.25 2.7-6.85 2.7v0c-1.3 0-2.483-0.217-3.55-0.65v0c-1.467 0.367-2.2 1.083-2.2 2.15v0c0 0.8 0.377 1.367 1.13 1.7 0.747 0.333 1.953 0.5 3.62 0.5v0h5.75c2.433 0 4.293 0.533 5.58 1.6 1.28 1.067 1.92 2.533 1.92 4.4v0c0 2.467-1.217 4.517-3.65 6.15-2.433 1.633-5.383 2.45-8.85 2.45-3.467 0-6.2-0.65-8.2-1.95-2-1.3-3.017-2.867-3.05-4.7v0c0-0.967 0.277-1.75 0.83-2.35 0.547-0.6 1.237-0.983 2.07-1.15v0c0.2 4.433 3.233 6.65 9.1 6.65v0c2.667 0 4.743-0.423 6.23-1.27 1.48-0.853 2.22-1.98 2.22-3.38v0c0-1.733-1.333-2.6-4-2.6z" fill="#ffffff" fill-rule="nonzero" stroke="none" stroke-width="1" stroke-linecap="butt" stroke-linejoin="miter" stroke-miterlimit="10" stroke-dasharray="" stroke-dashoffset="0" font-family="none" font-weight="none" font-size="none" text-anchor="none" style="mix-blend-mode: normal" data-fill-palette-color="secondary" opacity="1"></path><path d="M14.4 103.85v0c2.5 0 4.483-0.917 5.95-2.75 1.467-1.833 2.2-4.267 2.2-7.3 0-3.033-0.7-5.377-2.1-7.03-1.4-1.647-3.133-2.47-5.2-2.47v0c-3 0-5.233 1.5-6.7 4.5v0l-0.05 9.8c0 3.5 1.967 5.25 5.9 5.25zM8.6 72.15l-0.05 12.5c1.833-2.533 4.277-3.8 7.33-3.8 3.047 0 5.637 1.09 7.77 3.27 2.133 2.187 3.2 5.303 3.2 9.35 0 4.053-1.217 7.33-3.65 9.83v0c-2.433 2.533-5.333 3.8-8.7 3.8-3.367 0-5.9-0.743-7.6-2.23-1.7-1.48-2.55-3.57-2.55-6.27v0l0.05-26.35c0-1-0.417-1.667-1.25-2v0c0.7-1.033 1.583-1.55 2.65-1.55v0c1.867 0 2.8 1.15 2.8 3.45zM37.55 72.15v0 31.45c0 0.967 0.417 1.617 1.25 1.95v0c-0.7 1.067-1.567 1.6-2.6 1.6v0c-1.867 0-2.8-1.167-2.8-3.5v0-31.4c0-0.967-0.417-1.633-1.25-2v0c0.567-1.033 1.433-1.55 2.6-1.55v0c1.867 0 2.8 1.15 2.8 3.45zM48.93 70.2c0.847 0 1.547 0.243 2.1 0.73 0.547 0.48 0.82 1.147 0.82 2 0 0.847-0.357 1.61-1.07 2.29-0.72 0.687-1.53 1.03-2.43 1.03-0.9 0-1.633-0.267-2.2-0.8-0.567-0.533-0.85-1.233-0.85-2.1 0-0.867 0.393-1.61 1.18-2.23 0.78-0.613 1.597-0.92 2.45-0.92zM50.85 84.35v0 19.25c0 0.967 0.417 1.617 1.25 1.95v0c-0.7 1.067-1.567 1.6-2.6 1.6v0c-1.867 0-2.8-1.167-2.8-3.5v0-19.2c0-0.967-0.417-1.633-1.25-2v0c0.633-1.067 1.5-1.6 2.6-1.6v0c1.867 0 2.8 1.167 2.8 3.5zM76.47 87.72c-0.547 0.453-1.203 0.68-1.97 0.68-0.767 0-1.417-0.2-1.95-0.6v0c0.2-0.333 0.3-0.817 0.3-1.45 0-0.633-0.383-1.25-1.15-1.85-0.767-0.6-1.917-0.9-3.45-0.9-1.533 0-2.75 0.34-3.65 1.02-0.9 0.687-1.35 1.497-1.35 2.43 0 0.933 0.5 1.773 1.5 2.52 1 0.753 2.2 1.437 3.6 2.05 1.4 0.62 2.81 1.28 4.23 1.98 1.413 0.7 2.62 1.59 3.62 2.67 1 1.087 1.5 2.297 1.5 3.63v0c0 1.967-0.933 3.667-2.8 5.1-1.867 1.433-4.233 2.15-7.1 2.15-2.867 0-5.2-0.55-7-1.65-1.8-1.1-2.7-2.517-2.7-4.25v0c0-1.033 0.293-1.843 0.88-2.43 0.58-0.58 1.28-0.87 2.1-0.87 0.813 0 1.453 0.283 1.92 0.85v0c-0.467 0.633-0.7 1.4-0.7 2.3 0 0.9 0.46 1.673 1.38 2.32 0.913 0.653 2.243 0.98 3.99 0.98 1.753 0 3.157-0.377 4.21-1.13 1.047-0.747 1.57-1.663 1.57-2.75 0-1.08-0.493-2.02-1.48-2.82-0.98-0.8-2.17-1.493-3.57-2.08-1.4-0.58-2.81-1.197-4.23-1.85-1.413-0.647-2.61-1.47-3.59-2.47-0.987-1-1.48-2.133-1.48-3.4v0c0-2 0.867-3.677 2.6-5.03 1.733-1.347 3.86-2.02 6.38-2.02 2.513 0 4.67 0.457 6.47 1.37 1.8 0.92 2.7 2.13 2.7 3.63v0c0.033 0.8-0.227 1.423-0.78 1.87zM101.58 87.72c-0.553 0.453-1.213 0.68-1.98 0.68-0.767 0-1.417-0.2-1.95-0.6v0c0.2-0.333 0.3-0.817 0.3-1.45 0-0.633-0.383-1.25-1.15-1.85-0.767-0.6-1.917-0.9-3.45-0.9-1.533 0-2.75 0.34-3.65 1.02-0.9 0.687-1.35 1.497-1.35 2.43 0 0.933 0.5 1.773 1.5 2.52 1 0.753 2.2 1.437 3.6 2.05 1.4 0.62 2.81 1.28 4.23 1.98 1.413 0.7 2.62 1.59 3.62 2.67 1 1.087 1.5 2.297 1.5 3.63v0c0 1.967-0.933 3.667-2.8 5.1-1.867 1.433-4.233 2.15-7.1 2.15-2.867 0-5.2-0.55-7-1.65-1.8-1.1-2.7-2.517-2.7-4.25v0c0-1.033 0.293-1.843 0.88-2.43 0.58-0.58 1.277-0.87 2.09-0.87 0.82 0 1.463 0.283 1.93 0.85v0c-0.467 0.633-0.7 1.4-0.7 2.3 0 0.9 0.46 1.673 1.38 2.32 0.913 0.653 2.247 0.98 4 0.98 1.747 0 3.147-0.377 4.2-1.13 1.047-0.747 1.57-1.663 1.57-2.75 0-1.08-0.49-2.02-1.47-2.82-0.987-0.8-2.18-1.493-3.58-2.08-1.4-0.58-2.807-1.197-4.22-1.85-1.42-0.647-2.623-1.47-3.61-2.47-0.98-1-1.47-2.133-1.47-3.4v0c0-2 0.867-3.677 2.6-5.03 1.733-1.347 3.86-2.02 6.38-2.02 2.513 0 4.67 0.457 6.47 1.37 1.8 0.92 2.7 2.13 2.7 3.63v0c0.033 0.8-0.223 1.423-0.77 1.87z" fill="#ffffff" fill-rule="nonzero" stroke="none" stroke-width="1" stroke-linecap="butt" stroke-linejoin="miter" stroke-miterlimit="10" stroke-dasharray="" stroke-dashoffset="0" font-family="none" font-weight="none" font-size="none" text-anchor="none" style="mix-blend-mode: normal" data-fill-palette-color="accent" opacity="1"></path></g></svg></g></svg></g></svg></g></svg></g></svg></g></svg></g><defs></defs></svg><rect width="291.1415182755389" height="247.2" fill="none" stroke="none" visibility="hidden"></rect></g></svg></g></svg>